<svg t="1525176656118" class="icon" viewBox="0 0 1024 1024" version="1.1" xmlns="http://www.w3.org/2000/svg" p-id="5318" height="200" width="200"><path d="M352 288h-64a32 32 0 0 0 0 64h64a32 32 0 0 0 0-64zM352 416h-64a32 32 0 0 0 0 64h64a32 32 0 0 0 0-64zM352 544h-64a32 32 0 0 0 0 64h64a32 32 0 0 0 0-64zM352 672h-64a32 32 0 0 0 0 64h64a32 32 0 0 0 0-64zM544 288h-64a32 32 0 0 0 0 64h64a32 32 0 0 0 0-64zM544 416h-64a32 32 0 0 0 0 64h64a32 32 0 0 0 0-64zM544 544h-64a32 32 0 0 0 0 64h64a32 32 0 0 0 0-64zM544 672h-64a32 32 0 0 0 0 64h64a32 32 0 0 0 0-64z" fill="#707070" p-id="5319"></path><path d="M960 864h-64v-576a64 64 0 0 0-64-64h-128v-64a64 64 0 0 0-64-64H192a64 64 0 0 0-64 64v704H64a32 32 0 0 0 0 64h896a32 32 0 0 0 0-64z m-768 0v-704h448v704H192z m512 0v-576h128v576h-128z" fill="#707070" p-id="5320"></path></svg>